<svg id="Layer_1" data-name="Layer 1" xmlns="http://www.w3.org/2000/svg" viewBox="0 0 100 100"><defs><style>.cls-1{fill:#fff;}</style></defs><path class="cls-1" d="M83.25,21.54c-8-6.41-20.55-7.49-21.09-7.53a2,2,0,0,0-2,1.17,15,15,0,0,0-.61,1.66,49,49,0,0,1,17.59,6.32,2,2,0,0,1-1.06,3.7,1.94,1.94,0,0,1-1-.31C65,20.31,52.42,20,50,20s-15,.31-25,6.55a2,2,0,1,1-2.11-3.39,49,49,0,0,1,17.59-6.31c-.31-1-.58-1.62-.6-1.67a2,2,0,0,0-2-1.17c-.54,0-13.13,1.12-21.2,7.61C12.43,25.52,4,48.3,4,68a1.91,1.91,0,0,0,.27,1C10.08,79.21,26,81.88,29.56,82h.06a2,2,0,0,0,1.62-.82l3.66-5C25,73.6,20,69.27,19.7,69a2,2,0,0,1,2.65-3c.12.1,9.4,8,27.65,8s27.56-7.91,27.66-8a2,2,0,1,1,2.64,3C80,69.27,75,73.6,65.1,76.15l3.66,5a2,2,0,0,0,1.62.82h.06c3.61-.12,19.48-2.79,25.29-13A1.91,1.91,0,0,0,96,68C96,48.3,87.57,25.52,83.25,21.54ZM37,60c-3.87,0-7-3.58-7-8s3.13-8,7-8,7,3.58,7,8S40.87,60,37,60Zm26,0c-3.87,0-7-3.58-7-8s3.13-8,7-8,7,3.58,7,8S66.87,60,63,60Z"/></svg>