<svg width="30" height="30" viewBox="0 0 30 30" fill="none" xmlns="http://www.w3.org/2000/svg">
<path d="M17.0003 20.9999C17.0003 22.1046 16.1049 23.0001 15.0002 23.0001C13.8954 23.0001 13 22.1047 13 20.9999C13 19.8958 13.8954 19.0004 15.0002 19.0004C16.1049 19.0004 17.0003 19.8958 17.0003 20.9999Z" fill="#C0A66B"/>
<path d="M12.3323 12.9995C12.3323 14.1043 11.437 14.9997 10.3322 14.9997C9.22806 14.9997 8.33203 14.1043 8.33203 12.9995C8.33203 11.8948 9.22803 10.9994 10.3322 10.9994C11.4369 10.9994 12.3323 11.8948 12.3323 12.9995Z" fill="#C0A66B"/>
<path d="M21.6644 12.9995C21.6644 14.1043 20.7684 14.9997 19.6642 14.9997C18.5595 14.9997 17.6641 14.1043 17.6641 12.9995C17.6641 11.8948 18.5595 10.9994 19.6642 10.9994C20.7683 10.9994 21.6644 11.8948 21.6644 12.9995Z" fill="#C0A66B"/>
<path d="M19.3323 17C19.3323 18.1048 18.437 19.0002 17.3322 19.0002C16.2275 19.0002 15.332 18.1048 15.332 17C15.332 15.8953 16.2274 14.9999 17.3322 14.9999C18.4369 14.9999 19.3323 15.8953 19.3323 17Z" fill="#C0A66B"/>
<path d="M14.6683 17C14.6683 18.1048 13.7729 19.0002 12.6681 19.0002C11.5634 19.0002 10.668 18.1048 10.668 17C10.668 15.8953 11.5634 14.9999 12.6681 14.9999C13.7729 14.9999 14.6683 15.8953 14.6683 17Z" fill="#C0A66B"/>
<path d="M7 7V8.33363H14.7033C14.4738 8.7273 14.3334 9.17834 14.3334 9.66662V11.1223C13.5583 11.3976 12.9998 12.13 12.9998 12.9998C12.9998 14.1039 13.8958 15 14.9999 15C16.1041 15 17.0001 14.104 17.0001 12.9998C17.0001 12.1301 16.4416 11.3976 15.6665 11.1223V9.66662C15.6665 8.92931 16.2634 8.33363 17.0001 8.33363H22.9998V7H7Z" fill="#C0A66B"/>
</svg>
