<svg width="30" height="30" viewBox="0 0 30 30" fill="none" xmlns="http://www.w3.org/2000/svg">
<path d="M22.6775 12.9309H21.5323C21.0154 9.44484 19.5103 7.24133 17.583 7.24133C15.9326 7.24133 14.5854 8.84743 13.8924 11.6382C13.7495 12.1931 14.0834 12.759 14.6382 12.9018C15.1931 13.0439 15.759 12.71 15.9018 12.1552C16.388 10.19 17.1764 9.3108 17.5852 9.3108C18.0738 9.3108 19.0074 10.5215 19.4344 12.9318L18.1827 12.9311C17.9451 12.9318 17.7312 13.0723 17.6365 13.2902C17.541 13.508 17.5844 13.7605 17.7454 13.935L19.6175 15.9396L19.6183 15.9388C19.8282 16.1638 20.1226 16.2908 20.4304 16.2908C20.7382 16.2908 21.0318 16.1638 21.2425 15.9388L23.1146 13.9342V13.935C23.2756 13.7605 23.319 13.508 23.2243 13.2902C23.1296 13.0723 22.9149 12.9318 22.6774 12.9311L22.6775 12.9309Z" fill="#C0A66B"/>
<path d="M9.31072 15.2585C9.31072 16.638 7.24219 16.638 7.24219 15.2585C7.24219 13.8797 9.31072 13.8797 9.31072 15.2585Z" fill="#C0A66B"/>
<path d="M9.31072 11.1204C9.31072 12.5 7.24219 12.5 7.24219 11.1204C7.24219 9.7416 9.31072 9.7416 9.31072 11.1204Z" fill="#C0A66B"/>
<path d="M21.4631 19.3964C21.4631 20.776 19.3945 20.776 19.3945 19.3964C19.3945 18.0176 21.4631 18.0176 21.4631 19.3964Z" fill="#C0A66B"/>
<path d="M11.3778 23.7931C13.2996 23.7931 14.8015 21.5896 15.324 18.1035H16.462C16.7012 18.1035 16.9166 17.9622 17.0121 17.7428C17.1076 17.5242 17.0642 17.2692 16.9016 17.0948L15.0343 15.0933C14.8244 14.8676 14.5308 14.7397 14.2222 14.7397C13.9144 14.7397 13.62 14.8676 13.4101 15.0933L11.5435 17.0948C11.3801 17.2692 11.3367 17.5242 11.4322 17.7428C11.5277 17.9622 11.744 18.1035 11.9831 18.1035H13.227C12.8 20.5139 11.8639 21.7237 11.3778 21.7237C10.8916 21.7237 10.1466 20.689 9.69671 18.8793C9.56175 18.3229 9.00139 17.9812 8.44498 18.1161C7.88857 18.2511 7.54683 18.8115 7.68179 19.3679C8.29266 21.8839 9.53887 23.7931 11.3778 23.7931H11.3778Z" fill="#C0A66B"/>
</svg>
