<?xml version="1.0" encoding="UTF-8"?>
<svg id="Layer_1" data-name="Layer 1" xmlns="http://www.w3.org/2000/svg" viewBox="0 0 266.6 101.74">
  <defs>
    <style>
      .cls-1 {
        fill: #fff;
        stroke-width: 0px;
      }
    </style>
  </defs>
  <g>
    <g>
      <path class="cls-1" d="M183.03,66.32h-7.85l-13.28-30.58h6.85l10.33,24.38,10.57-24.38h6.91l-13.52,30.58Z"/>
      <path class="cls-1" d="M211.9,66.32v-30.58h6.02v30.58h-6.02Z"/>
      <path class="cls-1" d="M241.77,35.74l18.48,21.25v-21.25h6.08v30.58h-6.08l-17-19.9v19.9h-6.08v-26.04l-3.01-4.55h7.62Z"/>
    </g>
    <path class="cls-1" d="M117.2,35.8h18.84c2.27,0,4.35.32,6.25.97s3.52,1.61,4.87,2.88c1.35,1.27,2.4,2.84,3.14,4.7.74,1.86,1.12,4,1.12,6.43s-.36,4.48-1.09,6.4c-.72,1.92-1.76,3.54-3.11,4.87-1.35,1.33-2.97,2.36-4.87,3.08-1.9.73-4,1.09-6.31,1.09h-12.39v-24.36h-3.76l-2.7-6.05ZM130.06,41.84v18.26h6.02c2.92,0,5.18-.8,6.78-2.41,1.6-1.61,2.4-3.88,2.4-6.81s-.8-5.23-2.4-6.75-3.86-2.29-6.78-2.29h-6.02Z"/>
  </g>
  <path class="cls-1" d="M34.65,84.45c0,.6-.4,1-1,1C14.65,84.95-.45,69.25.05,50.15.45,31.75,15.25,16.95,33.65,16.55c.6,0,1,.4,1,1v66.9Z"/>
  <path class="cls-1" d="M34.65,1.05c41.2-7.3,79.9,33.2,58.4,73.1-11.1,20.1-36.7,31-58.4,26.9v-.7c27.8.2,57.5-19.5,57.5-49.3.2-21.6-17-39.6-36.8-45.9-6.7-2.2-13.7-3.4-20.7-3.4v-.7Z"/>
</svg>