<svg width="122" height="122" viewBox="0 0 122 122" fill="none" xmlns="http://www.w3.org/2000/svg">
<path fill-rule="evenodd" clip-rule="evenodd" d="M69.5733 45.0575C69.5733 49.506 65.7332 53.1112 61 53.1112C56.2668 53.1112 52.4268 49.506 52.4268 45.0575C52.4268 40.609 56.2668 37 61 37C65.7332 37 69.5733 40.609 69.5733 45.0575Z" fill="#C0A56A"/>
<path fill-rule="evenodd" clip-rule="evenodd" d="M88.4304 66.0029C86.1575 66.0029 83.9763 66.8499 82.3693 68.3602C80.7623 69.8705 79.8572 71.9205 79.8572 74.0567V80.5027C79.8572 81.7844 80.3995 83.0137 81.3645 83.9206C82.3295 84.8276 83.6375 85.3373 85.0012 85.3373H91.8599C93.2236 85.3373 94.5316 84.8276 95.4926 83.9206C96.4575 83.0137 96.9999 81.7844 96.9999 80.5027V74.0567C96.9999 71.9205 96.0987 69.8705 94.4917 68.3602C92.8848 66.8499 90.7036 66.0029 88.4306 66.0029H88.4304Z" fill="#C0A56A"/>
<path fill-rule="evenodd" clip-rule="evenodd" d="M42.1425 74.0567C42.1425 71.9205 41.2373 69.8705 39.6344 68.3602C38.0234 66.8499 35.8422 66.0029 33.5693 66.0029C31.2963 66.0029 29.1151 66.8499 27.5082 68.3602C25.9012 69.8705 25 71.9205 25 74.0567V80.5027C25 81.7844 25.5423 83.0137 26.5073 83.9206C27.4683 84.8276 28.7763 85.3373 30.144 85.3373H36.9986C38.3623 85.3373 39.6703 84.8276 40.6353 83.9206C41.6003 83.0137 42.1426 81.7844 42.1426 80.5027L42.1425 74.0567Z" fill="#C0A56A"/>
<path fill-rule="evenodd" clip-rule="evenodd" d="M45.5725 80.5021C45.5725 81.7838 46.1148 83.0131 47.0799 83.92C48.0409 84.8269 49.3488 85.3367 50.7165 85.3367H71.2881C72.6518 85.3367 73.9598 84.827 74.9208 83.92C75.8858 83.0131 76.4281 81.7838 76.4281 80.5021V70.837C76.4281 66.9882 74.8052 63.3004 71.9102 60.5829C69.0152 57.8621 65.0914 56.333 60.9997 56.333C52.4782 56.333 45.572 62.824 45.572 70.8364L45.5725 80.5021Z" fill="#C0A56A"/>
<path fill-rule="evenodd" clip-rule="evenodd" d="M38.7137 57.9459C38.7137 64.392 28.4299 64.392 28.4299 57.9459C28.4299 51.5037 38.7137 51.5037 38.7137 57.9459Z" fill="#C0A56A"/>
<path fill-rule="evenodd" clip-rule="evenodd" d="M93.5703 57.9459C93.5703 64.392 83.2866 64.392 83.2866 57.9459C83.2866 51.5037 93.5703 51.5037 93.5703 57.9459Z" fill="#C0A56A"/>
</svg>
