<svg width="122" height="122" viewBox="0 0 122 122" fill="none" xmlns="http://www.w3.org/2000/svg">
<path d="M62.9994 38.2646C56.1386 38.2646 50.5757 43.826 50.5757 50.6883C50.5757 57.5506 56.1371 63.112 62.9994 63.112C69.8616 63.112 75.423 57.5506 75.423 50.6883C75.423 43.8261 69.8616 38.2646 62.9994 38.2646ZM62.9994 57.3417C59.3244 57.3417 56.346 54.3633 56.346 50.6883C56.346 47.0134 59.3244 44.035 62.9994 44.035C66.6743 44.035 69.6527 47.0134 69.6527 50.6883C69.6527 54.3633 66.6743 57.3417 62.9994 57.3417Z" fill="#B89F6B" stroke="#C0A56A"/>
<path d="M82.0763 38.2646C75.2155 38.2646 69.6526 43.826 69.6526 50.6883C69.6526 57.5506 75.214 63.112 82.0763 63.112C88.9385 63.112 94.4999 57.5506 94.4999 50.6883C94.4999 43.8261 88.9385 38.2646 82.0763 38.2646ZM82.0763 57.3417C78.4013 57.3417 75.4229 54.3633 75.4229 50.6883C75.4229 47.0134 78.4013 44.035 82.0763 44.035C85.7512 44.035 88.7296 47.0134 88.7296 50.6883C88.7296 54.3633 85.7512 57.3417 82.0763 57.3417Z" fill="#B89F6B" stroke="#C0A56A"/>
<path d="M43.9237 38.2627H43.4237V38.274C36.7933 38.5363 31.5 43.9929 31.5 50.6864C31.5 57.5472 37.0614 63.11 43.9237 63.11C50.7859 63.11 56.3473 57.5486 56.3473 50.6864C56.3473 43.8241 50.7859 38.2627 43.9237 38.2627ZM43.9237 57.3411C40.2487 57.3411 37.2703 54.3627 37.2703 50.6878C37.2703 47.0128 40.2487 44.0344 43.9237 44.0344C47.5986 44.0344 50.577 47.0128 50.577 50.6878C50.577 54.3627 47.5986 57.3411 43.9237 57.3411Z" fill="#B89F6B" stroke="#C0A56A"/>
<path d="M72.5389 54.7803C65.6781 54.7803 60.1152 60.3417 60.1152 67.2039C60.1152 74.0662 65.6767 79.6276 72.5389 79.6276C79.4012 79.6276 84.9626 74.0662 84.9626 67.2039C84.9626 60.3417 79.4012 54.7803 72.5389 54.7803ZM72.5389 73.8559C68.864 73.8559 65.8855 70.8775 65.8855 67.2025C65.8855 63.5276 68.864 60.5492 72.5389 60.5492C76.2139 60.5492 79.1923 63.5276 79.1923 67.2025C79.1923 70.8775 76.2139 73.8559 72.5389 73.8559Z" fill="#B89F6B" stroke="#C0A56A"/>
<path d="M53.4618 54.7803C46.601 54.7803 41.0381 60.3417 41.0381 67.2039C41.0381 74.0662 46.5995 79.6276 53.4618 79.6276C60.324 79.6276 65.8854 74.0662 65.8854 67.2039C65.8854 60.3417 60.324 54.7803 53.4618 54.7803ZM53.4618 73.8559C49.7868 73.8559 46.8084 70.8775 46.8084 67.2025C46.8084 63.5276 49.7868 60.5492 53.4618 60.5492C57.1367 60.5492 60.1151 63.5276 60.1151 67.2025C60.1151 70.8775 57.1367 73.8559 53.4618 73.8559Z" fill="#B89F6B" stroke="#C0A56A"/>
<path d="M62.9994 71.3125C56.1386 71.3125 50.5757 76.8739 50.5757 83.7362C50.5757 90.5984 56.1371 96.1598 62.9994 96.1598C69.8616 96.1598 75.423 90.5984 75.423 83.7362C75.423 76.8739 69.8616 71.3125 62.9994 71.3125ZM62.9994 90.3895C59.3244 90.3895 56.346 87.4111 56.346 83.7362C56.346 80.0612 59.3244 77.0828 62.9994 77.0828C66.6743 77.0828 69.6527 80.0612 69.6527 83.7362C69.6527 87.4111 66.6743 90.3895 62.9994 90.3895Z" fill="#B89F6B" stroke="#C0A56A"/>
<path d="M74.83 26.5H51.7259C49.8693 26.5 48.3643 28.0051 48.3643 29.8616V29.863C48.3643 31.7196 49.8693 33.2247 51.7259 33.2247H74.83C76.6866 33.2247 78.1916 31.7196 78.1916 29.863V29.8616C78.1916 28.0051 76.6866 26.5 74.83 26.5Z" fill="#B89F6B" stroke="#C0A56A"/>
</svg>
