<svg width="122" height="122" viewBox="0 0 122 122" fill="none" xmlns="http://www.w3.org/2000/svg">
<path d="M60.5 28C42.5677 28 28 42.5677 28 60.5C28 78.4323 42.5677 93 60.5 93C78.4323 93 93 78.4323 93 60.5C93 42.5677 78.4323 28 60.5 28ZM38.3085 54.1357C37.4141 53.8208 35.5207 53.9254 34.8909 54.7139C34.4172 55.2392 34.1023 56.8177 34.0494 57.5018C33.9965 58.1329 33.9965 59.2377 34.4172 59.8159C34.5217 59.9734 34.6276 60.0792 34.7321 60.2367H35.784C36.4151 60.2367 36.2577 58.8699 37.0992 58.764C37.3096 58.764 37.5729 58.9215 37.5729 59.1319C37.5729 59.2364 37.5199 59.3422 37.4684 59.3952C37.0476 60.1308 36.1016 61.7093 37.4154 61.8138C39.0985 61.9713 38.2569 63.2336 38.3615 64.1809C38.3615 64.2854 38.4144 64.5488 38.466 64.5488L37.9923 64.7591C37.5186 64.1809 37.0463 63.6027 36.5726 63.129C35.5207 61.9726 34.7321 61.7093 33.5228 60.8678C33.102 60.6045 32.6283 60.0263 32.3664 59.6056C32.2619 59.3952 32.103 59.1848 31.9985 59.0274C31.9985 58.1858 32.0515 57.2914 31.8411 56.4499L31.7366 56.3454C33.1563 46.3015 39.7825 37.8878 48.8274 33.8906L50.0368 33.4169C51.0357 33.0491 52.0347 32.6812 53.035 32.4179L53.2454 32.365C53.4028 32.3121 53.6132 32.2605 53.7706 32.2605C53.981 32.3134 54.1914 32.4179 54.4018 32.4709C54.98 33.1549 54.8754 33.9965 55.1903 34.785C55.3478 35.2587 56.1364 36.1002 55.8215 36.5726C55.5582 36.9404 55.0858 36.8359 54.7696 37.0978C54.4018 37.4127 54.1914 37.8335 53.7706 38.1497C53.6132 38.2542 53.4028 38.3601 53.2969 38.5175C53.0866 38.7809 53.1395 39.2016 53.1924 39.5165C53.4028 40.6213 53.2454 41.7777 54.1914 42.5663C55.9789 44.0389 54.6651 44.9334 52.7717 45.1953C52.1405 45.2999 51.1416 45.3528 50.7208 45.8794C50.2471 46.4047 50.5634 46.8784 50.0897 47.3521C49.354 48.1406 47.7226 47.9303 46.7766 48.4039C45.4614 49.0351 44.6199 50.1399 43.7268 51.2434C42.8853 52.2953 41.8863 53.0309 40.8344 53.8208C39.7282 54.6094 39.5708 54.5578 38.3085 54.1357ZM59.9747 76.486C59.7114 77.2217 58.7654 77.485 58.2917 78.0632C57.818 78.6414 57.7664 79.4299 57.3973 80.0611C56.6616 81.3233 55.0302 81.6382 53.9267 82.5327C52.9807 83.3213 52.4541 84.479 51.7184 85.478C50.9828 86.4769 49.825 87.3714 48.6157 87.0551C47.7742 86.8448 47.196 86.1091 46.8797 85.3192C46.5635 84.5306 46.459 83.6891 46.3545 82.8476C45.8292 79.7448 44.2507 76.7995 42.0424 74.5913C40.6756 73.2245 39.5708 71.9093 40.2549 69.8584C40.5182 69.0698 41.0434 68.3328 41.0434 67.4913C41.0434 67.281 40.9905 67.1235 40.9389 66.9131C40.7285 66.2291 41.0964 65.4934 41.8334 65.283C42.0967 65.2301 42.3071 65.1256 42.5174 65.0727C43.1486 64.9152 43.7797 65.0727 44.3579 65.2301C45.7247 65.545 47.0399 65.9142 48.3022 66.5453C50.353 67.5972 51.8786 69.3332 53.6132 70.8044C54.4547 71.5401 55.4007 72.2242 56.3481 72.8024C56.9263 73.1702 57.4529 73.4864 58.084 73.8013C58.6093 74.0646 59.1359 74.3266 59.5567 74.7473C59.9218 75.2767 60.1851 75.9078 59.9747 76.486ZM69.0726 36.2047C68.5473 36.9933 67.9677 36.8359 67.1792 37.0463C66.4951 37.2037 65.9169 37.6774 65.2328 37.8878C64.4972 38.1511 63.8661 37.9923 63.2865 38.6763C62.9716 38.9912 62.8128 39.412 62.5508 39.7812C62.3405 40.149 62.0256 40.5168 61.6048 40.6756C60.2896 41.2009 59.0803 39.0985 58.9228 38.0466C58.8699 37.7317 58.8699 37.4684 58.9228 37.1521C59.1862 35.4162 59.2907 34.838 58.5021 33.2608C58.3446 32.9975 57.5031 31.9456 57.5031 31.7882V31.6307C58.5021 31.5262 59.501 31.4733 60.5529 31.4733C62.7612 31.4733 64.9179 31.7366 67.0217 32.2089C68.1265 32.4722 68.9151 32.4722 69.2829 33.4183C69.5978 34.2584 69.5978 35.3632 69.0726 36.2047ZM74.4881 85.953C74.803 85.5852 75.1192 84.6908 75.6974 84.6378C75.5929 82.0088 78.6957 81.1673 79.0635 78.8002C79.168 78.1161 79.0105 77.485 79.0635 76.8023C79.1164 75.8562 80.2728 74.9089 80.0624 74.0673C79.9579 73.6466 78.1161 72.4373 77.6438 72.5418C77.2759 72.5947 76.9081 72.8051 76.5389 72.8567C76.1182 72.9612 75.6974 72.9096 75.2767 72.8567C74.2777 72.7521 72.7521 72.8037 72.1739 71.8048C72.0165 71.5415 71.9636 71.2266 71.8591 70.9103C71.5442 69.8055 70.176 68.702 70.6497 67.4927C71.0705 66.3363 71.0175 65.336 71.3338 64.1266C71.7545 62.654 73.1213 61.1814 74.3836 60.4457C75.3825 59.9204 75.4884 58.5523 76.4344 57.8682C76.6448 57.7108 76.8552 57.6049 76.9597 57.3946C77.6953 56.2897 73.4891 52.6617 76.8023 52.3984C77.3805 52.3455 78.1175 52.8721 78.6957 52.6617C79.6946 52.241 79.1164 51.3465 78.4853 50.8742C78.1704 50.6109 77.3805 50.0327 77.8012 49.5074C77.9587 49.35 78.169 49.2441 78.3265 49.1925C80.4832 48.2981 82.3237 46.2472 80.2199 44.2493C79.7462 43.8286 79.3254 43.3033 79.3784 42.6722C79.4829 41.7261 81.1143 40.0431 80.0624 39.0442C81.0085 39.9386 81.9558 40.8846 82.7974 41.8836C83.6389 42.8825 84.1641 43.8299 84.5333 44.7759C84.6378 44.7759 87.8994 50.4032 88.6879 53.6105C89.2661 55.9776 89.5294 58.5007 89.4765 61.2356C89.4765 71.4912 83.2181 80.8524 74.4881 85.953Z" fill="#C0A56A"/>
</svg>
