<svg width="122" height="122" viewBox="0 0 122 122" fill="none" xmlns="http://www.w3.org/2000/svg">
<path d="M63.8962 27.4C63.8962 26.7549 63.6408 26.1998 63.2052 25.8175C62.789 25.4521 62.2644 25.292 61.7741 25.292C61.2839 25.292 60.7593 25.4521 60.343 25.8175C59.9075 26.1998 59.6521 26.7549 59.6521 27.4V38.5054C59.6521 39.1506 59.9075 39.7057 60.343 40.088C60.7593 40.4534 61.2839 40.6135 61.7741 40.6135C62.2644 40.6135 62.789 40.4534 63.2052 40.088C63.6408 39.7057 63.8962 39.1506 63.8962 38.5054V27.4Z" fill="#C0A56A" stroke="#C0A56A" stroke-width="2"/>
<path d="M46.7258 30.8112L46.7258 30.8112L46.7273 30.8137L52.3003 40.4199C52.3005 40.4202 52.3007 40.4205 52.3008 40.4207C52.6232 40.9782 53.1221 41.3288 53.6891 41.4404C54.2308 41.547 54.7637 41.4228 55.1868 41.178C55.6099 40.9332 55.9839 40.5326 56.1606 40.0078C56.3454 39.4587 56.2865 38.8515 55.9624 38.2953C55.962 38.2946 55.9616 38.294 55.9612 38.2934L50.3995 28.6897C50.3994 28.6895 50.3994 28.6894 50.3993 28.6893C50.0769 28.1315 49.5778 27.7807 49.0105 27.6691C48.4687 27.5626 47.936 27.6868 47.5128 27.931C47.0896 28.1752 46.7154 28.5744 46.5366 29.0973C46.3495 29.6449 46.4041 30.2527 46.7258 30.8112Z" fill="#C0A56A" stroke="#C0A56A" stroke-width="2"/>
<path d="M72.802 28.6861L72.8002 28.6892L67.2361 38.297L67.235 38.2988C66.9138 38.8562 66.8582 39.4631 67.0435 40.0104C67.2206 40.5335 67.5934 40.9341 68.0167 41.1794C68.4402 41.4247 68.9733 41.549 69.5157 41.4422C70.0831 41.3305 70.5818 40.9801 70.9063 40.4244L70.9081 40.4213L76.4704 30.8167C76.4708 30.816 76.4712 30.8154 76.4715 30.8147C76.7957 30.2584 76.8545 29.6508 76.6695 29.1016C76.4926 28.5765 76.1182 28.1756 75.6943 27.9306C75.2703 27.6855 74.7368 27.5617 74.1945 27.6682C73.6271 27.7796 73.1271 28.1294 72.802 28.6861Z" fill="#C0A56A" stroke="#C0A56A" stroke-width="2"/>
<path d="M89.8147 82.8537C92.1641 83.4887 93.954 83.4131 96.2935 82.7583C98.4618 82.3799 99.9064 85.4202 98.3434 86.8548C97.7281 87.48 84.4448 93.6265 82.4939 94.5741C80.1972 95.4165 78.3875 92.0635 80.2498 90.5302C82.234 89.0858 83.4086 87.8453 84.3266 85.5288L79.6806 75.8916C74.2679 76.701 69.148 73.2396 66.8282 68.452L61.2114 56.8075C59.3458 60.6771 57.4801 64.5498 55.6145 68.4192C53.2948 73.2166 48.175 76.7011 42.7427 75.8917L38.0967 85.5289C38.916 87.5887 40.2322 89.2371 42.0748 90.4546C44.0688 91.9419 42.3216 95.2422 40.1236 94.6367L24.3921 87.0786C22.2797 85.7197 23.9512 82.1299 26.3531 82.8209C28.4327 83.4691 30.5253 83.4131 32.618 82.8538L37.2542 73.2359C33.286 69.5046 32.8122 63.3906 35.076 58.6264C37.2871 54.0231 39.5081 49.4297 41.7193 44.8263C41.9891 44.2669 42.657 44.0399 43.2164 44.3097L61.2113 52.9799L79.2163 44.3097C79.7658 44.0399 80.4337 44.2669 80.7035 44.8263L87.314 58.5312C89.6205 63.3286 89.1566 69.485 85.1686 73.2393L89.8146 82.8571L89.8147 82.8537Z" fill="#C0A56A"/>
</svg>
