<svg width="81" height="77" viewBox="0 0 81 77" fill="none" xmlns="http://www.w3.org/2000/svg">
<mask id="mask0_16_44" style="mask-type:luminance" maskUnits="userSpaceOnUse" x="0" y="0" width="81" height="77">
<path d="M80.703 0H0V76.3269H80.703V0Z" fill="white"/>
</mask>
<g mask="url(#mask0_16_44)">
<path d="M29.0378 63.4933C29.0378 63.7935 28.8115 64.0185 28.5098 64.0185C14.1794 63.7935 2.71503 52.0104 2.94128 37.7507C3.16753 23.7912 14.4811 12.6086 28.5098 12.3084C28.8115 12.3084 29.0378 12.5336 29.0378 12.8338V63.4933Z" fill="#C2A461"/>
<path d="M29.0386 0.675499C60.1129 -4.80322 89.3018 25.5924 73.0857 55.5377C64.7138 70.623 45.4054 78.8036 29.0386 75.7265V75.2011C50.0062 75.3512 72.4824 60.5663 72.4824 38.2011C72.6332 21.9899 59.6604 8.48077 44.7265 3.7526C39.6732 2.1014 34.3936 1.20088 29.1139 1.12583V0.600446L29.0386 0.675499Z" fill="#C2A461"/>
</g>
</svg>
